<svg width="42" height="42" viewBox="0 0 42 42" fill="none" xmlns="http://www.w3.org/2000/svg">
<path d="M14.7385 36.0816C17.8115 37.6951 19.348 38.5001 21 38.5001V21.0001L4.6165 12.3778L4.5465 12.4951C3.5 14.2696 3.5 16.4798 3.5 20.8986V21.1033C3.5 25.5203 3.5 27.7306 4.54475 29.5051C5.59125 31.2813 7.47425 32.2701 11.2385 34.2458L14.7385 36.0816Z" fill="black"/>
<path d="M30.7597 7.756L27.2597 5.9185C24.1885 4.30675 22.652 3.5 21 3.5C19.3462 3.5 17.8115 4.305 14.7385 5.9185L11.2385 7.756C7.55645 9.688 5.67345 10.675 4.61646 12.376L21 21L37.3835 12.3778C36.323 10.675 34.4435 9.688 30.7597 7.756Z" fill="white"/>
<path d="M37.4552 12.4951L37.3835 12.3778L21 21.0001V38.5001C22.652 38.5001 24.1885 37.6951 27.2615 36.0816L30.7615 34.2441C34.5257 32.2683 36.4087 31.2813 37.4552 29.5051C38.5 27.7306 38.5 25.5203 38.5 21.1051V20.9003C38.5 16.4816 38.5 14.2696 37.4552 12.4951Z" fill="white"/>
<path d="M11.0652 7.84703L11.2402 7.75603L13.8529 6.38403L29.7779 15.1428L36.8217 11.6235C37.0608 11.8942 37.272 12.1847 37.4552 12.495C37.7177 12.9395 37.9137 13.412 38.0607 13.9388L31.0624 17.437V22.75C31.0624 23.0981 30.9241 23.432 30.678 23.6781C30.4319 23.9243 30.098 24.0625 29.7499 24.0625C29.4018 24.0625 29.068 23.9243 28.8218 23.6781C28.5757 23.432 28.4374 23.0981 28.4374 22.75V18.7495L22.3124 21.812V38.332C21.8838 38.4432 21.4428 38.4996 20.9999 38.5C20.5659 38.5 20.1372 38.444 19.6874 38.332V21.812L3.94092 13.937C4.08792 13.412 4.28392 12.9395 4.54642 12.495C4.72842 12.1847 4.93958 11.8942 5.17992 11.6235L20.9999 19.5335L26.9272 16.5708L11.0652 7.84703Z" fill="black"/>
</svg>
